<?xml version="1.0" standalone="no"?>
<!DOCTYPE svg PUBLIC "-//W3C//DTD SVG 20010904//EN"
 "http://www.w3.org/TR/2001/REC-SVG-20010904/DTD/svg10.dtd">
<svg version="1.0" xmlns="http://www.w3.org/2000/svg"
 width="612.000000pt" height="612.000000pt" viewBox="0 0 612.000000 612.000000"
 preserveAspectRatio="xMidYMid meet">
<metadata>
Created by potrace 1.14, written by Peter Selinger 2001-2017
</metadata>
<g transform="translate(0.000000,612.000000) scale(0.100000,-0.100000)"
fill="#000000" stroke="none">
<path d="M3060 5573 c0 -39 -112 -347 -179 -495 -39 -87 -79 -179 -90 -205
-49 -126 -141 -347 -147 -352 -3 -3 -10 3 -16 14 -16 29 -99 105 -117 107 -9
0 -29 2 -46 4 -68 7 -155 -34 -155 -73 0 -15 2 -15 18 -1 33 29 103 41 153 26
20 -6 55 -27 78 -48 22 -20 42 -35 44 -33 2 2 10 -3 17 -12 12 -15 -10 -87
-85 -270 -7 -16 -23 -59 -35 -95 -13 -36 -37 -87 -52 -113 -15 -26 -28 -50
-28 -53 0 -9 -31 -37 -35 -32 -3 3 -8 27 -11 53 -3 27 -10 57 -14 66 -18 33
-17 117 1 171 9 29 22 72 28 95 16 58 58 87 125 86 45 -1 55 3 81 31 27 28 28
31 10 34 -11 2 -25 9 -32 14 -16 13 -69 1 -111 -24 -37 -23 -76 -79 -98 -142
-22 -61 -66 -146 -77 -146 -5 0 -7 7 -3 15 3 8 1 15 -4 15 -6 0 -10 -13 -10
-28 0 -15 -5 -33 -11 -39 -7 -7 -8 -19 -4 -30 7 -16 10 -43 6 -57 0 -3 -29 8
-63 24 -75 35 -101 41 -190 45 -78 3 -106 21 -88 56 7 11 10 23 7 25 -2 3 -10
-9 -17 -26 -15 -35 -23 -36 -84 -11 -57 25 -97 83 -104 150 -2 27 1 58 8 70 6
13 9 25 7 28 -11 10 -49 -116 -52 -174 -3 -50 0 -67 16 -87 19 -24 85 -50 147
-58 l24 -3 -21 -26 c-45 -58 -42 -169 5 -169 8 0 15 -10 15 -22 1 -17 2 -19 6
-5 3 10 14 17 28 17 12 0 28 7 35 15 7 8 18 15 25 15 6 0 20 9 30 20 15 16 15
20 3 20 -8 0 -23 -9 -33 -20 -18 -20 -18 -20 -43 5 -14 14 -30 25 -36 25 -22
0 -17 49 7 61 12 7 24 15 27 18 21 25 94 51 143 51 81 0 207 -61 207 -100 0
-30 59 -175 81 -199 18 -19 19 -25 8 -59 -7 -21 -14 -31 -16 -22 -3 8 -7 22
-10 30 -3 8 -7 20 -8 26 -6 28 -38 83 -59 103 -51 48 -95 59 -202 52 -30 -2
-106 -55 -129 -91 -11 -16 -26 -30 -33 -30 -7 0 -10 -4 -7 -10 3 -5 -1 -35
-10 -67 -9 -32 -18 -74 -21 -93 -7 -52 -11 -60 -36 -60 -45 0 -104 -39 -123
-79 -10 -24 -22 -38 -30 -34 -22 8 -65 111 -65 154 0 51 37 132 72 155 15 10
25 20 23 22 -2 2 -18 -6 -35 -18 -41 -29 -70 -89 -77 -160 -4 -48 -2 -64 14
-87 33 -47 35 -63 10 -63 -12 0 -34 -8 -47 -17 -14 -9 -26 -17 -27 -18 -1 0
-10 -19 -19 -41 l-16 -39 38 41 c74 79 128 69 139 -25 9 -77 35 -127 103 -198
74 -79 110 -104 205 -143 42 -18 77 -36 77 -40 0 -18 -16 -16 -69 12 -108 56
-287 43 -358 -25 -41 -39 -73 -107 -80 -170 -5 -44 -1 -59 36 -131 34 -67 121
-182 121 -160 0 3 17 -8 37 -26 20 -18 53 -40 74 -49 l37 -17 -19 -49 c-14
-38 -16 -51 -6 -57 6 -4 18 -6 25 -3 27 10 10 -6 -28 -25 -50 -25 -80 -54 -80
-77 0 -9 3 -14 6 -10 3 3 17 1 31 -4 14 -5 41 -12 59 -15 19 -3 53 -11 76 -17
l42 -12 -72 -44 c-106 -64 -187 -153 -206 -226 -13 -47 -15 -122 -6 -156 14
-49 84 -134 141 -171 28 -18 54 -33 58 -34 3 0 24 -8 46 -18 70 -30 143 -28
263 9 35 11 27 -8 -25 -61 l-48 -48 52 40 c29 21 52 44 53 49 0 6 31 42 68 80
37 39 85 95 105 125 20 30 45 66 55 78 l18 24 18 -26 c17 -26 16 -28 -12 -64
-17 -20 -68 -72 -115 -115 -92 -85 -131 -148 -142 -228 -19 -134 117 -171 230
-62 17 16 40 41 53 57 12 17 22 23 22 14 0 -25 -57 -104 -96 -134 -35 -27 -44
-29 -117 -28 -68 1 -77 -1 -64 -13 21 -21 85 -27 137 -13 65 18 154 112 208
222 39 77 44 95 48 174 3 60 1 82 -5 69 -9 -19 -10 -19 -10 3 -1 12 4 22 10
22 5 0 8 3 6 8 -3 4 -1 16 3 27 l8 20 8 -20 c4 -11 12 -23 17 -26 5 -4 1 -19
-9 -35 -15 -23 -15 -26 -3 -16 14 10 19 8 32 -20 14 -28 14 -34 0 -55 -9 -13
-13 -26 -9 -30 3 -4 -1 -17 -10 -30 -8 -13 -14 -32 -13 -41 3 -36 -2 -52 -23
-72 -12 -11 -17 -20 -10 -20 16 0 58 58 83 114 l21 49 19 -57 c30 -88 128
-359 138 -381 33 -70 122 -345 146 -448 11 -42 22 -74 26 -70 4 5 20 51 35
103 15 52 60 185 101 295 41 110 95 256 120 325 25 69 53 138 60 153 13 26 16
27 31 14 9 -8 26 -17 37 -21 12 -3 38 -26 59 -51 40 -49 119 -94 151 -87 35 7
85 52 101 90 24 57 29 128 11 155 -9 14 -12 29 -7 36 10 16 36 3 88 -43 24
-22 46 -33 62 -31 43 3 83 -16 155 -77 39 -33 86 -63 108 -69 46 -12 94 -4
109 20 10 16 15 16 62 3 110 -29 172 -18 200 36 24 48 28 88 12 126 -8 20 -13
36 -10 36 7 0 -26 62 -44 83 -8 9 -25 17 -36 17 -19 -1 -18 -2 6 -17 37 -23
52 -61 38 -97 -5 -15 -10 -47 -10 -70 0 -27 -6 -48 -15 -56 -17 -14 -108 -22
-99 -9 6 11 6 11 -32 0 -17 -5 -37 -6 -43 -2 -6 4 -17 35 -23 69 -6 34 -16 62
-20 62 -5 0 -7 4 -4 9 3 5 -1 11 -9 15 -8 3 -15 10 -15 16 0 6 5 8 12 4 7 -4
8 -3 4 5 -4 6 -11 9 -15 7 -4 -3 -29 19 -55 49 -51 60 -51 69 0 30 l32 -25
-16 33 c-18 38 -61 97 -82 114 -12 10 0 13 63 14 42 1 85 2 95 3 195 22 183
20 242 52 107 58 192 185 196 295 3 69 -20 182 -45 223 -29 47 -76 87 -129
112 -38 18 -63 22 -130 21 -76 -2 -82 -1 -64 13 11 8 49 38 86 65 36 28 65 53
66 58 0 4 19 27 43 51 23 24 47 50 52 57 27 35 77 124 81 142 2 11 8 23 13 26
15 10 24 183 12 227 -18 63 -45 88 -97 89 -24 0 -44 3 -44 8 0 4 -10 7 -22 7
-21 -1 -21 -2 -6 -13 15 -12 15 -15 -3 -37 -28 -37 -24 -94 10 -149 15 -26 32
-57 35 -69 4 -12 11 -20 16 -17 5 3 0 27 -11 53 -39 90 -20 157 38 133 46 -19
62 -56 60 -141 -1 -52 -6 -75 -14 -76 -24 -3 -25 -4 -15 -17 7 -8 7 -18 2 -27
-9 -13 -10 -13 -10 0 0 8 -15 -16 -34 -54 -19 -39 -33 -73 -31 -76 2 -4 -9
-22 -25 -41 l-30 -34 16 38 c21 53 24 130 7 179 -51 149 -114 198 -251 195
-60 -2 -85 -7 -99 -20 -11 -9 -23 -17 -28 -17 -5 0 0 7 11 16 18 15 18 15 -10
9 l-29 -6 29 28 c16 16 40 42 53 58 34 44 120 225 114 242 -3 8 0 13 8 11 7
-2 15 5 17 16 2 10 0 16 -5 13 -5 -3 -14 14 -21 37 -13 51 -58 100 -107 117
-26 10 -34 18 -30 30 4 13 0 15 -20 11 -24 -4 -24 -5 -8 -18 17 -12 16 -13 -6
-14 -20 0 -22 3 -16 28 15 56 18 89 18 152 -1 54 3 70 23 97 25 33 31 53 15
53 -5 0 -15 -16 -21 -35 -11 -34 -30 -48 -30 -22 0 7 -14 34 -30 61 -17 26
-32 57 -34 69 -1 11 -9 23 -17 25 -8 3 -34 19 -59 36 -51 36 -113 65 -160 75
-21 4 -36 14 -41 29 -6 15 -5 21 1 17 9 -6 14 14 11 43 -1 7 7 28 18 46 30 48
26 48 -25 -1 -42 -39 -61 -49 -88 -44 -12 2 -35 -31 -36 -51 0 -22 -16 -24
-24 -3 -3 8 2 19 12 24 12 7 14 13 6 21 -8 8 -18 5 -37 -10 -22 -17 -24 -25
-17 -49 7 -24 5 -30 -11 -34 -25 -7 -41 18 -79 121 l-29 80 24 16 c14 9 25 23
25 30 0 7 7 20 16 27 9 7 20 24 25 37 5 13 14 20 19 17 6 -4 17 -1 25 5 12 10
12 14 -2 28 -9 9 -24 17 -34 19 -28 4 -69 -15 -69 -31 0 -14 -38 -86 -46 -86
-7 0 -26 42 -30 68 -3 15 -8 29 -12 32 -4 3 -12 19 -18 35 -18 47 -215 537
-229 570 -41 94 -131 385 -134 433 -1 19 -21 14 -21 -5z m-5 -825 c15 -40 33
-86 40 -103 7 -16 18 -46 25 -65 7 -19 35 -88 62 -152 27 -65 46 -122 43 -128
-4 -6 0 -19 9 -29 12 -13 14 -25 7 -47 -10 -37 -4 -54 19 -54 17 0 60 -43 60
-61 0 -4 -10 -6 -22 -4 -12 3 -30 -2 -39 -11 -16 -14 -21 -11 -67 44 -50 61
-97 147 -118 217 -20 67 -33 97 -33 78 -1 -33 -1 -32 -28 -108 -32 -87 -59
-131 -131 -206 l-56 -60 -14 27 c-12 23 -18 26 -52 20 l-38 -6 10 38 c24 88
74 190 120 244 26 31 48 59 48 62 0 3 -8 6 -17 6 -12 0 -14 3 -7 8 6 4 21 30
32 57 43 109 72 183 93 243 12 34 23 62 24 62 2 0 15 -33 30 -72z m17 -502
c-3 -6 -7 -5 -10 2 -3 10 -7 10 -18 1 -22 -18 -27 -5 -13 42 l13 43 17 -39
c10 -22 15 -44 11 -49z m-1152 -120 c0 -2 -8 -10 -17 -17 -16 -13 -17 -12 -4
4 13 16 21 21 21 13z m1800 -46 c-14 -10 -22 -22 -18 -26 4 -3 -3 -15 -15 -25
-24 -20 -25 -19 48 -24 45 -2 114 31 116 55 0 13 1 13 7 0 8 -19 29 -19 60 -2
19 11 26 10 46 -5 37 -28 72 -84 84 -135 14 -55 15 -71 5 -65 -5 3 -8 -8 -9
-23 -1 -16 -17 -55 -35 -87 -40 -67 -101 -109 -167 -116 -41 -4 -43 -3 -57 30
-18 43 -18 43 -2 43 7 0 30 12 51 26 53 36 116 36 86 -1 -8 -10 -9 -15 -2 -15
16 0 32 34 32 69 0 51 -31 73 -101 70 -32 -1 -61 0 -63 2 -3 2 11 16 31 29 28
19 49 25 90 24 71 0 42 16 -31 18 -39 1 -59 -3 -71 -15 -9 -9 -23 -17 -31 -17
-8 0 -26 -7 -40 -17 -24 -15 -25 -15 -30 3 -3 10 -20 57 -38 104 l-33 85 51
16 c66 22 65 22 36 -1z m-234 -88 c9 -20 17 -44 19 -52 2 -8 4 -16 4 -17 1 -2
1 -6 2 -10 0 -5 6 -14 12 -22 15 -17 -16 -41 -52 -41 l-26 0 1 88 c1 48 2 91
3 95 2 16 22 -5 37 -41z m-421 -16 c8 -7 12 -16 10 -20 -3 -3 -2 -4 1 -1 10 7
134 -105 134 -121 0 -8 4 -14 10 -14 20 0 39 -69 37 -135 -1 -36 -6 -65 -10
-65 -5 0 -5 -4 -2 -10 15 -24 -37 -102 -125 -189 l-93 -92 -36 43 c-20 24 -55
62 -79 85 -61 60 -83 115 -83 213 0 64 4 90 22 125 22 44 93 113 111 107 5 -1
7 2 3 8 -3 5 2 13 11 17 10 4 29 19 43 35 30 32 29 32 46 14z m-317 -103 c-24
-70 -18 -193 12 -261 11 -25 18 -47 16 -50 -7 -6 -42 54 -68 116 -12 28 -25
52 -30 52 -21 0 -4 62 35 128 23 39 45 72 48 72 3 0 -3 -25 -13 -57z m-468
-162 c14 -23 30 -41 37 -41 9 0 9 -7 2 -29 l-10 -29 -37 21 c-50 28 -173 146
-160 153 5 3 22 9 36 14 35 9 98 -33 132 -89z m-195 2 c1 -15 5 -38 9 -51 6
-19 4 -22 -18 -22 -13 0 -32 -3 -40 -6 -14 -5 -15 0 -10 32 8 54 33 99 46 86
6 -6 11 -23 13 -39z m1538 -95 c6 -22 4 -27 -10 -26 -10 1 -29 -2 -42 -6 -21
-7 -23 -6 -17 10 5 11 10 37 13 59 8 68 14 73 32 30 10 -22 21 -52 24 -67z
m-227 50 c-3 -58 -51 -147 -128 -238 -83 -98 -108 -140 -125 -209 -8 -31 -16
-63 -18 -71 -2 -8 -4 -22 -5 -30 -1 -13 -40 113 -55 176 -4 17 19 44 116 135
127 119 157 157 179 224 15 49 19 55 30 55 4 0 7 -19 6 -42z m234 -103 c0 -8
-4 -15 -10 -15 -5 0 -10 7 -10 15 0 8 5 15 10 15 6 0 10 -7 10 -15z m570 5 c0
-8 -50 -60 -57 -60 -3 0 1 8 9 18 32 37 30 46 -5 19 -42 -32 -51 -24 -11 10
23 19 64 28 64 13z m25 -97 c-20 -68 -79 -143 -131 -168 -19 -9 -38 -15 -41
-12 -2 3 2 25 10 49 9 24 18 60 22 81 7 33 15 42 76 78 38 23 70 49 70 58 1 9
4 6 6 -7 2 -12 -3 -48 -12 -79z m-2355 52 c0 -13 11 -54 24 -90 13 -36 22 -65
19 -65 -9 0 -31 27 -47 58 -9 17 -25 36 -37 42 -23 13 -18 46 10 67 24 18 31
16 31 -12z m1794 -27 c8 -28 13 -55 10 -60 -3 -4 -1 -8 3 -8 5 0 9 -9 10 -20
1 -16 -2 -18 -20 -11 -49 18 -215 -8 -254 -40 -23 -20 -24 -5 -6 72 20 87 29
103 38 63 13 -58 14 -58 56 -15 34 34 97 66 141 70 3 1 13 -22 22 -51z m-795
-66 c42 -37 82 -74 89 -82 19 -22 41 -74 34 -80 -9 -7 -45 -78 -50 -98 -7 -30
-8 -87 -3 -97 3 -5 6 -14 7 -20 1 -5 9 -45 18 -89 9 -43 16 -83 15 -90 -1 -11
-36 110 -44 154 -3 14 -8 36 -12 50 -3 14 -7 63 -8 110 -1 71 -6 95 -30 143
-31 64 -51 81 -107 91 -24 4 -46 18 -62 37 -26 31 -26 55 0 45 7 -3 16 -1 19
4 11 17 57 -10 134 -78z m1228 66 c-3 -8 -6 -5 -6 6 -1 11 2 17 5 13 3 -3 4
-12 1 -19z m-1551 -38 c-1 -16 -9 -35 -20 -43 -18 -13 -18 -15 -1 -48 10 -19
24 -42 33 -51 22 -26 0 -22 -52 9 -52 32 -59 43 -46 79 11 28 22 41 60 66 14
9 25 17 26 17 0 1 0 -12 0 -29z m839 -38 c-7 -26 -22 -72 -33 -102 -39 -109
-44 -139 -40 -200 3 -48 2 -57 -6 -41 -15 27 -35 13 -40 -27 -2 -24 6 -49 34
-94 l37 -62 -56 -36 c-31 -20 -73 -57 -94 -81 -38 -46 -51 -36 -23 19 8 15 17
50 21 77 l8 50 -26 -23 c-14 -13 -28 -35 -31 -48 -9 -35 -39 -32 -32 4 3 15 8
47 11 72 11 85 66 237 94 260 3 3 13 14 21 24 13 18 13 19 0 11 -12 -7 -12 -4
1 11 9 10 27 39 39 64 13 25 35 61 50 80 15 19 35 50 44 68 24 46 37 31 21
-26z m-658 -54 c2 -11 12 -41 23 -66 11 -24 20 -51 20 -58 0 -16 -26 -19 -35
-4 -4 6 -11 8 -16 5 -5 -4 -10 4 -10 17 -1 13 -3 43 -4 68 -4 65 13 95 22 38z
m-214 -80 c30 -10 50 -11 69 -4 30 11 63 -7 51 -28 -4 -6 1 -5 10 3 15 12 17
12 12 -1 -3 -8 1 -21 10 -28 8 -7 15 -18 15 -24 0 -6 -7 -2 -15 8 -17 22 -20
14 -5 -14 8 -15 6 -17 -11 -13 -11 3 -27 -1 -37 -10 -9 -8 -35 -19 -56 -23
-34 -6 -38 -5 -33 10 8 21 -7 21 -24 0 -14 -17 -52 -15 -104 7 -16 7 -33 12
-37 11 -4 -1 -4 8 1 21 5 12 9 27 10 32 0 6 10 36 22 68 l22 58 29 -30 c16
-16 48 -36 71 -43z m-428 -40 c5 -4 5 -8 0 -8 -10 0 -85 50 -85 57 0 5 69 -35
85 -49z m1567 41 c40 1 50 -4 73 -31 26 -31 20 -52 -8 -30 -7 5 -25 12 -42 16
-27 5 -26 4 10 -16 33 -18 36 -23 20 -26 -57 -10 -96 -24 -110 -38 -12 -12
-22 -14 -43 -7 -33 12 -92 0 -103 -20 -5 -8 -25 -18 -44 -21 -20 -4 -39 -15
-43 -24 -5 -13 -8 -10 -12 13 -10 49 17 113 59 140 42 28 133 54 170 48 14 -2
47 -4 73 -4z m-1802 -74 c0 -4 -9 4 -20 18 -11 14 -20 28 -20 32 0 4 9 -4 20
-18 11 -14 20 -28 20 -32z m1188 -32 c14 -64 5 -263 -13 -281 -3 -3 -5 15 -6
39 0 24 -2 52 -4 62 -4 20 -8 155 -6 200 2 42 17 32 29 -20z m-156 -51 c10 -9
24 -46 32 -82 18 -78 40 -167 50 -197 12 -36 -8 -27 -32 15 -11 21 -30 46 -42
57 -11 10 -20 24 -20 32 0 7 -3 13 -7 13 -5 0 -8 21 -8 48 -1 27 -10 65 -23
91 -12 25 -22 47 -22 49 0 10 56 -11 72 -26z m-758 -17 c-5 -12 -10 -12 -27
-3 -21 11 -21 11 -2 18 25 9 36 4 29 -15z m953 -92 c-3 -10 -5 -4 -5 12 0 17
2 24 5 18 2 -7 2 -21 0 -30z m-427 7 c0 -31 -3 -35 -24 -32 -27 3 -80 -15
-107 -38 -12 -11 -26 -20 -31 -20 -11 0 -27 42 -21 53 6 10 44 26 103 43 65
18 80 17 80 -6z m848 -47 c56 -23 122 -66 122 -80 0 -7 -12 -13 -27 -13 -16 0
-45 -3 -65 -6 -33 -6 -41 -2 -88 42 -28 26 -56 57 -62 67 -9 18 -7 19 36 13
26 -4 63 -14 84 -23z m-653 -56 c20 -29 23 -37 10 -27 -11 8 -23 19 -26 23 -3
5 -9 8 -13 8 -3 -1 -17 1 -31 5 -27 7 -33 19 -12 27 28 12 44 4 72 -36z m1468
32 c30 -16 67 -59 67 -78 -1 -38 -55 -92 -129 -127 l-73 -34 5 32 c6 31 -13
86 -27 81 -3 -2 -17 -3 -30 -3 -18 0 -27 9 -40 45 -19 48 -15 65 13 65 9 0 21
4 27 9 18 18 157 25 187 10z m-1465 -76 c36 -27 42 -48 12 -50 -11 -1 -20 2
-20 6 0 4 -16 13 -35 20 -19 7 -35 17 -35 22 0 6 -4 8 -9 5 -10 -7 -24 22 -16
34 8 12 64 -8 103 -37z m893 24 c-6 -8 -8 -16 -5 -19 3 -3 1 -9 -4 -12 -6 -3
-9 0 -8 6 2 16 15 38 23 38 3 0 0 -6 -6 -13z m140 1 c1 -7 0 -17 -1 -23 -1 -5
-2 -29 -1 -52 1 -24 -2 -43 -7 -43 -9 0 -22 68 -22 111 0 21 29 27 31 7z
m-1968 -42 c107 -36 103 -27 64 -142 -19 -54 -41 -114 -48 -131 l-14 -33 -56
37 c-31 21 -65 49 -75 64 -10 15 -21 26 -25 23 -4 -2 -28 24 -52 58 -43 59
-44 64 -31 89 27 53 42 60 111 58 36 -1 92 -12 126 -23z m849 -79 c47 -27 105
-77 90 -77 -5 0 -26 7 -46 15 -19 8 -58 20 -86 26 -31 7 -54 18 -60 30 -6 10
-18 19 -28 19 -9 1 -28 7 -42 15 -25 14 -25 15 20 28 19 5 96 -23 152 -56z
m1391 -11 c13 -10 15 -19 9 -37 -9 -24 -9 -24 -26 8 -24 47 -19 56 17 29z
m-733 -86 c-6 -11 -37 -38 -70 -59 -58 -39 -60 -39 -60 -17 0 16 11 28 38 42
20 10 48 27 61 37 31 23 44 22 31 -3z m567 -40 c1 -8 -10 -25 -25 -37 l-28
-21 -2 31 c-3 32 12 49 38 44 8 -1 16 -9 17 -17z m-17 -50 c-6 -11 -13 -20
-16 -20 -2 0 0 9 6 20 6 11 13 20 16 20 2 0 0 -9 -6 -20z m-458 -10 c-18 -11
-43 -22 -55 -24 -12 -3 -22 -5 -22 -6 0 -7 -36 -6 -41 1 -3 5 2 10 10 10 22 2
42 8 91 29 39 17 50 10 17 -10z m-1342 -67 c8 -31 7 -33 -16 -33 -27 0 -29 8
-12 65 8 29 13 35 15 20 3 -11 8 -35 13 -52z m1835 19 c-2 -3 0 -12 5 -22 12
-23 1 -33 -18 -17 -13 9 -14 9 -8 0 4 -7 2 -13 -4 -13 -6 0 -9 12 -6 28 5 32
3 29 21 29 8 0 13 -2 10 -5z m491 -32 c48 -18 101 -59 129 -100 22 -32 26 -48
24 -92 -4 -85 -26 -136 -85 -194 -30 -29 -67 -55 -84 -59 -18 -4 -27 -11 -24
-17 5 -7 2 -8 -6 -3 -7 4 -16 2 -21 -6 -6 -11 -11 -11 -21 -1 -14 14 -42 17
-34 3 6 -9 -33 -23 -45 -16 -4 3 -1 25 6 50 12 39 12 86 0 106 -3 4 -25 16
-50 28 -55 26 -115 28 -115 5 0 -13 -7 -16 -38 -12 -23 4 -48 0 -63 -8 -47
-26 -43 -13 15 45 53 54 61 58 83 48 17 -8 27 -7 35 1 7 7 25 12 40 12 41 0
44 20 16 106 l-25 75 31 16 c62 33 164 38 232 13z m-2513 -214 c4 -10 0 -12
-14 -9 -22 6 -26 23 -5 23 8 0 16 -6 19 -14z m1807 10 c0 -7 -71 -48 -75 -44
-9 9 36 48 55 48 11 0 20 -2 20 -4z m60 -9 c0 -2 -10 -15 -22 -29 -21 -24
-108 -75 -108 -64 0 3 -16 -2 -35 -10 -19 -8 -35 -10 -35 -5 0 14 26 32 34 23
4 -4 6 -1 4 7 -1 7 5 15 14 16 9 2 36 17 60 33 36 25 88 42 88 29z m-1770
-241 c0 -8 7 -16 15 -20 20 -7 19 -36 -1 -36 -26 0 -191 -90 -236 -129 -36
-30 -39 -32 -28 -10 19 36 118 132 179 173 58 39 71 43 71 22z m118 -90 c2 -2
-9 -26 -24 -52 -48 -85 -53 -96 -59 -135 -9 -54 10 -104 49 -129 41 -25 52
-25 99 -1 59 30 105 69 134 112 31 47 42 45 17 -3 -45 -90 -192 -213 -284
-238 -92 -26 -198 -4 -268 56 -40 34 -69 89 -52 99 5 3 12 20 15 38 26 118
153 233 285 257 32 6 80 3 88 -4z m272 -34 c0 -36 -15 -44 -40 -22 -13 11 -28
20 -34 21 -17 1 23 15 50 17 17 1 24 -3 24 -16z m-114 -17 c60 -30 97 -66 89
-87 -3 -8 -38 -29 -77 -47 -84 -39 -104 -35 -135 29 -24 46 -21 69 13 105 29
31 47 31 110 0z m153 -49 c1 -15 -2 -16 -14 -6 -8 7 -13 22 -11 34 3 11 5 28
6 36 3 16 17 -33 19 -64z m833 -18 c-17 -8 -26 -8 -34 0 -9 9 -4 12 23 11 32
0 33 -1 11 -11z m618 -3 c6 -8 35 -30 64 -49 95 -63 221 -196 245 -259 9 -24
7 -31 -18 -59 l-29 -32 -78 18 c-147 34 -151 38 -201 206 -33 109 -37 128 -26
114 4 -6 18 -16 30 -22 17 -9 22 -9 27 4 10 27 7 34 -29 55 -19 12 -35 25 -35
30 0 14 36 10 50 -6z m-640 -93 c-1 -25 -2 -26 -15 -9 -7 11 -11 25 -8 33 8
22 23 6 23 -24z m232 16 c62 -57 87 -77 136 -109 29 -18 52 -37 52 -41 0 -14
-27 -9 -51 10 -13 10 -58 35 -99 56 -92 46 -94 48 -86 80 8 32 16 32 48 4z
m157 -24 c8 6 24 -34 16 -42 -6 -6 -95 58 -95 69 0 6 16 1 35 -11 19 -12 39
-19 44 -16z m-684 -101 l5 -78 -24 69 c-25 73 -26 82 -12 105 15 23 26 -10 31
-96z m111 9 c-18 -59 -27 -11 -11 58 7 33 8 34 16 12 6 -16 4 -40 -5 -70z
m-565 -55 c-7 -18 -14 -50 -15 -72 -9 -148 -231 -323 -292 -230 -36 55 4 156
92 231 32 27 88 78 124 114 l65 66 20 -38 c17 -34 18 -43 6 -71z m989 63 c19
-8 47 -23 61 -35 l27 -22 -41 -1 c-55 -3 -57 -8 -8 -23 23 -7 41 -13 41 -15 0
-1 -9 -23 -20 -48 -19 -45 -17 -54 8 -38 22 15 61 75 55 85 -4 6 8 1 25 -11
42 -30 44 -35 44 -92 -1 -81 -51 -128 -105 -98 -12 7 -26 11 -30 10 -26 -7
-140 103 -176 169 -17 31 -17 36 -3 67 10 21 21 31 30 27 10 -4 12 0 8 11 -3
8 -3 27 0 40 6 25 7 25 28 6 11 -10 37 -25 56 -32z m-456 -120 c-3 -25 -10
-65 -17 -90 l-11 -45 -8 30 c-13 46 -11 175 4 192 11 13 14 12 25 -13 8 -18
11 -47 7 -74z m-171 -111 c78 -173 119 -262 124 -268 9 -12 38 40 112 206 44
101 81 187 81 192 0 6 4 13 10 16 5 3 -13 -58 -41 -137 -28 -79 -52 -147 -53
-153 -2 -5 -9 -23 -16 -40 -6 -16 -25 -66 -41 -110 -29 -79 -49 -113 -49 -84
0 12 -49 144 -79 214 -4 11 -16 38 -25 60 -24 54 -96 244 -96 252 0 12 8 -3
73 -148z"/>
<path d="M3905 4020 c3 -5 8 -10 11 -10 2 0 4 5 4 10 0 6 -5 10 -11 10 -5 0
-7 -4 -4 -10z"/>
<path d="M3858 4009 c-26 -15 -23 -41 5 -37 14 2 23 11 25 26 4 24 -4 27 -30
11z"/>
<path d="M3975 3889 c4 -6 9 -8 12 -5 3 3 15 1 27 -5 20 -10 20 -10 2 5 -22
18 -51 22 -41 5z"/>
<path d="M3030 3862 c0 -27 -41 -122 -52 -122 -5 0 -7 4 -4 9 9 14 -4 41 -19
41 -16 0 -26 -25 -19 -45 6 -14 18 -19 37 -16 5 1 7 -2 5 -6 -43 -86 -53 -114
-53 -160 0 -44 5 -56 29 -82 37 -38 87 -49 131 -28 62 30 82 128 43 209 -10
20 -18 42 -18 48 0 6 -13 37 -30 70 -16 33 -30 66 -30 74 0 8 -4 18 -10 21 -5
3 -10 -2 -10 -13z"/>
<path d="M3179 3727 c-9 -7 -19 -21 -21 -32 -5 -22 17 -75 31 -75 25 0 39 55
26 98 -8 25 -13 26 -36 9z m31 -58 c0 -5 -7 -6 -15 -3 -8 4 -15 13 -15 21 0
13 3 13 15 3 8 -7 15 -16 15 -21z"/>
<path d="M2550 3231 c0 -9 24 -21 42 -21 6 0 6 6 -2 15 -14 16 -40 20 -40 6z"/>
<path d="M4252 2888 c7 -19 38 -22 38 -4 0 10 -9 16 -21 16 -12 0 -19 -5 -17
-12z"/>
<path d="M1787 2794 c-8 -8 1 -24 14 -24 5 0 9 7 9 15 0 15 -12 20 -23 9z"/>
<path d="M1880 2720 c0 -6 11 -10 25 -10 14 0 28 0 32 -1 4 0 9 4 11 9 1 5
-13 9 -33 10 -19 1 -35 -3 -35 -8z"/>
<path d="M4500 2455 c0 -13 36 -35 56 -35 13 0 1 31 -15 40 -27 14 -41 13 -41
-5z"/>
<path d="M4571 2352 c-11 -20 4 -56 20 -47 12 8 12 65 -1 65 -5 0 -14 -8 -19
-18z"/>
<path d="M4438 2322 c-44 -46 -58 -79 -47 -109 7 -20 14 -22 46 -18 21 3 40
10 41 15 2 6 15 23 28 37 31 33 33 83 4 83 -11 0 -20 7 -20 15 0 23 -12 18
-52 -23z"/>
<path d="M4442 2148 c3 -7 12 -14 21 -16 12 -2 15 1 11 12 -7 19 -38 22 -32 4z"/>
<path d="M4465 2096 c-9 -14 -25 -28 -36 -31 -10 -4 -19 -10 -19 -15 0 -4 23
4 50 18 47 24 58 41 33 49 -7 3 -19 -7 -28 -21z"/>
<path d="M2158 1953 c7 -3 16 -2 19 1 4 3 -2 6 -13 5 -11 0 -14 -3 -6 -6z"/>
<path d="M2010 1910 c0 -5 5 -10 10 -10 6 0 10 5 10 10 0 6 -4 10 -10 10 -5 0
-10 -4 -10 -10z"/>
<path d="M2070 1900 c0 -5 5 -10 10 -10 6 0 10 5 10 10 0 6 -4 10 -10 10 -5 0
-10 -4 -10 -10z"/>
<path d="M1930 1860 c-10 -6 -11 -10 -3 -10 7 0 24 -22 38 -50 25 -50 39 -61
48 -37 7 20 -43 107 -62 107 -3 0 -13 -5 -21 -10z"/>
<path d="M2084 1606 c-8 -22 -2 -27 16 -16 12 7 12 12 3 21 -10 10 -14 9 -19
-5z"/>
<path d="M2273 1894 c-8 -20 13 -42 27 -28 12 12 3 44 -11 44 -5 0 -12 -7 -16
-16z"/>
<path d="M2330 1849 c0 -5 5 -7 10 -4 6 3 10 8 10 11 0 2 -4 4 -10 4 -5 0 -10
-5 -10 -11z"/>
<path d="M2510 1630 c-22 -22 -18 -49 5 -30 7 6 21 7 30 3 15 -5 17 -3 12 11
-4 10 -7 22 -7 27 0 15 -19 10 -40 -11z"/>
<path d="M3515 5100 c-23 -33 -26 -46 -21 -82 9 -66 10 -71 3 -107 -7 -44 7
-79 46 -113 39 -33 54 -36 33 -6 -14 20 -14 25 9 64 21 35 23 46 14 77 -11 40
-26 54 -41 39 -6 -6 -6 -12 1 -16 17 -11 1 -34 -20 -29 -19 5 -27 23 -9 23 5
0 7 6 4 14 -3 7 10 26 28 43 29 26 58 65 58 77 0 2 -8 3 -17 2 -10 0 -22 9
-28 21 -16 36 -31 34 -60 -7z"/>
<path d="M3814 5078 c-29 -14 -45 -49 -32 -72 6 -10 13 -14 17 -9 3 4 18 16
34 26 29 19 35 39 15 55 -9 6 -20 6 -34 0z"/>
<path d="M3606 4947 c3 -10 9 -15 12 -12 3 3 0 11 -7 18 -10 9 -11 8 -5 -6z"/>
<path d="M3813 4935 c-7 -21 -2 -25 25 -18 12 3 22 12 22 19 0 19 -39 18 -47
-1z"/>
<path d="M3750 4926 c0 -9 5 -16 10 -16 6 0 10 4 10 9 0 6 -4 13 -10 16 -5 3
-10 -1 -10 -9z"/>
<path d="M3810 4878 c0 -9 5 -20 10 -23 13 -8 13 5 0 25 -8 13 -10 13 -10 -2z"/>
<path d="M3690 4870 c0 -5 7 -10 16 -10 8 0 12 5 9 10 -3 6 -10 10 -16 10 -5
0 -9 -4 -9 -10z"/>
<path d="M3841 4826 c-10 -12 -11 -20 -3 -28 16 -16 29 -5 22 21 -5 22 -7 22
-19 7z"/>
<path d="M2532 4778 c-21 -21 -13 -37 29 -59 56 -28 71 -13 33 35 -31 38 -43
43 -62 24z"/>
<path d="M2083 4695 c-9 -25 4 -29 17 -6 7 15 7 21 0 21 -6 0 -13 -7 -17 -15z"/>
<path d="M2261 4674 c0 -11 3 -14 6 -6 3 7 2 16 -1 19 -3 4 -6 -2 -5 -13z"/>
<path d="M2367 4683 c-12 -11 -8 -23 8 -23 8 0 15 7 15 15 0 16 -12 20 -23 8z"/>
<path d="M3819 4675 c-7 -12 -5 -43 6 -67 6 -15 2 -18 -23 -18 -17 0 -33 -4
-36 -9 -9 -14 20 -21 33 -8 8 8 19 5 42 -12 30 -22 31 -22 25 -3 -4 11 -2 23
4 27 17 10 11 25 -14 37 -16 6 -26 21 -28 37 -2 14 -6 22 -9 16z"/>
<path d="M3916 4671 c-2 -3 -4 -18 -4 -32 0 -26 1 -26 20 -7 10 10 23 16 29
12 7 -4 9 1 7 12 -3 18 -44 29 -52 15z"/>
<path d="M2005 4625 c-22 -14 -36 -25 -31 -25 10 0 76 40 76 46 0 6 -2 5 -45
-21z"/>
<path d="M1884 4564 c-18 -14 -18 -15 4 -4 12 6 22 13 22 15 0 8 -5 6 -26 -11z"/>
<path d="M1802 4504 l-47 -47 50 43 c28 24 52 45 54 47 2 2 1 3 -3 3 -4 0 -28
-21 -54 -46z"/>
<path d="M3872 4510 c10 -16 10 -24 1 -40 -7 -10 -9 -21 -4 -24 4 -3 6 -19 3
-37 -3 -23 -1 -30 8 -24 6 4 10 16 7 26 -3 11 -1 19 4 19 5 0 9 5 9 11 0 5 -6
7 -12 3 -10 -5 -10 -4 -1 6 7 8 8 22 3 40 -5 16 -6 31 -2 34 3 3 -2 6 -11 6
-15 0 -15 -3 -5 -20z"/>
<path d="M2155 4506 c-34 -16 -121 -96 -104 -96 7 0 19 8 28 18 34 39 88 34
111 -9 9 -15 8 -24 -1 -35 -7 -8 -7 -14 -1 -14 5 0 12 7 16 15 7 20 -13 75
-29 75 -7 0 -18 7 -25 15 -22 26 41 18 73 -10 38 -34 59 -96 59 -180 1 -58 3
-65 10 -40 14 46 1 170 -22 216 -12 22 -32 44 -46 49 -31 12 -32 12 -69 -4z"/>
<path d="M1902 4480 c-7 -11 -9 -20 -4 -20 10 0 32 22 32 32 0 15 -15 8 -28
-12z"/>
<path d="M2475 4391 c-3 -6 3 -15 14 -21 24 -12 42 7 20 21 -18 11 -26 11 -34
0z"/>
<path d="M4095 4370 c-13 -6 -15 -9 -5 -9 8 0 22 4 30 9 18 12 2 12 -25 0z"/>
<path d="M4140 4370 c0 -5 9 -10 19 -10 10 0 33 -14 51 -30 35 -33 57 -33 24
0 -24 24 -94 54 -94 40z"/>
<path d="M2000 4359 c0 -5 5 -7 10 -4 6 3 10 8 10 11 0 2 -4 4 -10 4 -5 0 -10
-5 -10 -11z"/>
<path d="M4045 4351 c-3 -6 -15 -11 -26 -11 -10 0 -19 -7 -19 -15 0 -8 6 -15
13 -15 14 0 51 39 44 47 -3 2 -8 0 -12 -6z"/>
<path d="M3702 4338 c6 -18 28 -21 28 -4 0 9 -7 16 -16 16 -9 0 -14 -5 -12
-12z"/>
<path d="M1986 4295 c-4 -13 -2 -14 14 -5 23 13 26 20 6 20 -8 0 -16 -7 -20
-15z"/>
<path d="M2442 4294 c-12 -8 -22 -22 -22 -30 0 -25 35 -15 53 16 21 34 7 41
-31 14z"/>
<path d="M4150 4295 c6 -8 9 -18 6 -24 -10 -16 27 -23 42 -7 12 12 11 15 -7
21 -11 3 -21 11 -21 16 0 5 -7 9 -16 9 -13 0 -14 -3 -4 -15z"/>
<path d="M3900 4280 c0 -5 7 -10 16 -10 8 0 12 5 9 10 -3 6 -10 10 -16 10 -5
0 -9 -4 -9 -10z"/>
<path d="M4255 4275 c17 -48 16 -53 -3 -59 -11 -4 -26 -13 -32 -21 -11 -13 -8
-13 18 -4 39 13 48 40 27 76 -9 15 -13 19 -10 8z"/>
<path d="M1947 4265 c-4 -11 -10 -27 -13 -35 -3 -8 1 -5 11 8 9 12 15 28 13
34 -3 7 -7 4 -11 -7z"/>
<path d="M2155 4206 c-11 -8 -16 -19 -12 -30 6 -14 10 -14 27 -4 11 7 20 21
20 30 0 22 -10 23 -35 4z"/>
<path d="M4432 4191 c2 -7 7 -12 11 -12 12 1 9 15 -3 20 -7 2 -11 -2 -8 -8z"/>
<path d="M4092 4157 c-18 -21 -3 -52 31 -65 45 -17 57 1 24 34 -15 15 -27 31
-27 35 0 13 -16 11 -28 -4z"/>
<path d="M2410 4140 c-21 -21 -27 -50 -10 -50 6 0 13 7 17 16 3 8 12 13 19 10
9 -3 14 2 14 14 0 29 -17 33 -40 10z"/>
<path d="M1570 4115 c0 -8 2 -15 4 -15 2 0 6 7 10 15 3 8 1 15 -4 15 -6 0 -10
-7 -10 -15z"/>
<path d="M4614 4056 c-4 -9 -3 -46 1 -81 8 -74 20 -81 59 -34 28 33 33 72 13
104 -15 25 -65 33 -73 11z"/>
<path d="M4290 3907 c-8 -7 -20 -27 -27 -45 -11 -31 -10 -36 12 -58 23 -23 26
-24 48 -9 17 11 24 26 25 56 2 23 -1 38 -6 35 -6 -3 -12 3 -15 14 -6 23 -16
25 -37 7z"/>
<path d="M1576 3872 c-3 -6 -1 -14 5 -17 14 -9 20 -2 10 14 -6 8 -11 9 -15 3z"/>
<path d="M1870 3846 c0 -2 7 -9 15 -16 13 -11 14 -10 9 4 -5 14 -24 23 -24 12z"/>
<path d="M4441 3816 c-9 -10 -8 -16 4 -26 20 -16 38 -1 29 23 -8 21 -18 22
-33 3z"/>
<path d="M1740 3810 c-12 -8 -10 -10 8 -10 13 0 20 4 17 10 -7 12 -6 12 -25 0z"/>
<path d="M4591 3764 c-12 -15 -21 -32 -22 -38 -2 -29 -9 -47 -23 -62 -9 -8
-14 -20 -11 -25 13 -21 -181 -13 -203 9 -7 6 -19 12 -27 12 -7 0 -26 12 -42
28 -17 15 -38 34 -48 42 -18 14 -18 13 0 -12 11 -15 36 -37 56 -50 21 -13 34
-27 31 -32 -3 -5 2 -6 12 -3 12 5 19 0 26 -18 5 -14 13 -25 18 -25 17 0 22 13
9 28 -10 13 -8 14 13 8 14 -3 55 -9 92 -13 45 -4 65 -10 61 -17 -4 -6 4 -2 16
9 13 11 25 19 27 18 10 -7 23 -1 46 20 14 12 35 30 46 39 31 25 27 80 -7 96
-36 17 -47 15 -70 -14z"/>
<path d="M4409 3763 c-13 -16 -12 -17 4 -4 16 13 21 21 13 21 -2 0 -10 -8 -17
-17z"/>
<path d="M4358 3743 c6 -2 18 -2 25 0 6 3 1 5 -13 5 -14 0 -19 -2 -12 -5z"/>
<path d="M4296 3725 c-3 -8 -3 -15 0 -15 3 0 12 7 20 15 13 13 13 15 1 15 -8
0 -17 -7 -21 -15z"/>
<path d="M1750 3676 c0 -9 7 -16 16 -16 9 0 14 5 12 12 -6 18 -28 21 -28 4z"/>
<path d="M1520 3565 c0 -8 7 -15 15 -15 8 0 15 7 15 15 0 8 -7 15 -15 15 -8 0
-15 -7 -15 -15z"/>
<path d="M4392 3539 c2 -6 8 -10 13 -10 5 0 11 4 13 10 2 6 -4 11 -13 11 -9 0
-15 -5 -13 -11z"/>
<path d="M1582 3506 c1 -10 8 -17 13 -17 15 1 12 24 -3 29 -9 3 -13 -2 -10
-12z"/>
<path d="M4450 3469 c0 -11 5 -17 10 -14 6 3 10 13 10 21 0 8 -4 14 -10 14 -5
0 -10 -9 -10 -21z"/>
<path d="M1512 3330 c0 -14 2 -19 5 -12 2 6 2 18 0 25 -3 6 -5 1 -5 -13z"/>
<path d="M1505 3263 c-11 -3 -22 -8 -25 -12 -3 -3 -18 -13 -35 -23 -21 -11
-35 -31 -47 -66 -19 -55 -31 -175 -17 -166 5 3 9 11 9 18 0 7 21 33 46 58 36
36 48 57 56 94 5 27 10 54 11 59 10 44 23 33 64 -56 43 -90 76 -139 95 -139 5
0 6 5 3 11 -13 20 -23 124 -13 130 11 7 -72 79 -91 79 -6 0 -11 5 -11 10 0 10
-11 11 -45 3z"/>
<path d="M4381 3196 c-14 -17 -1 -28 19 -16 11 7 12 12 4 20 -8 8 -14 7 -23
-4z"/>
<path d="M4870 3090 c-14 -26 -6 -40 21 -33 13 4 19 12 17 26 -4 28 -24 32
-38 7z"/>
<path d="M1371 2964 c0 -11 3 -14 6 -6 3 7 2 16 -1 19 -3 4 -6 -2 -5 -13z"/>
<path d="M1230 2890 c-13 -8 -12 -10 3 -10 9 0 17 5 17 10 0 12 -1 12 -20 0z"/>
<path d="M1387 2893 c-8 -12 -18 -103 -12 -103 3 0 13 5 24 11 14 10 16 19 11
51 -8 41 -15 54 -23 41z"/>
<path d="M4726 2873 c-9 -9 -7 -33 3 -33 12 0 22 28 12 34 -5 3 -11 3 -15 -1z"/>
<path d="M1385 2748 c4 -46 18 -76 62 -132 44 -58 128 -125 195 -158 46 -22
70 -47 45 -49 -34 -2 -63 -11 -76 -24 -13 -13 -12 -17 4 -35 20 -22 47 -19
105 12 32 17 33 19 13 24 -12 3 -19 12 -17 19 6 14 -33 55 -52 55 -6 0 -17 7
-24 15 -7 8 -19 15 -27 15 -42 0 -188 160 -199 220 -4 17 -11 33 -15 36 -5 3
-7 9 -4 14 3 5 1 11 -4 14 -5 4 -8 -8 -6 -26z"/>
<path d="M1521 2756 c-16 -19 -11 -29 8 -17 7 5 12 14 9 21 -3 9 -8 7 -17 -4z"/>
<path d="M4614 2639 c-11 -19 39 -85 81 -107 25 -13 85 -23 85 -14 -2 30 -65
102 -89 102 -12 0 -21 4 -21 9 0 12 -49 21 -56 10z"/>
<path d="M1650 2536 c0 -7 9 -16 20 -19 11 -3 20 -2 20 2 0 3 -9 12 -20 19
-16 10 -20 10 -20 -2z"/>
<path d="M4746 2421 c-10 -15 3 -37 30 -51 32 -17 40 -8 24 30 -12 29 -42 41
-54 21z"/>
<path d="M1762 2339 c2 -6 8 -10 13 -10 5 0 11 4 13 10 2 6 -4 11 -13 11 -9 0
-15 -5 -13 -11z"/>
<path d="M4830 2320 c0 -5 5 -10 10 -10 6 0 10 5 10 10 0 6 -4 10 -10 10 -5 0
-10 -4 -10 -10z"/>
<path d="M1505 2310 c-8 -13 4 -32 16 -25 12 8 12 35 0 35 -6 0 -13 -4 -16
-10z"/>
<path d="M1455 2300 c3 -5 8 -10 11 -10 2 0 4 5 4 10 0 6 -5 10 -11 10 -5 0
-7 -4 -4 -10z"/>
<path d="M1666 2284 c-4 -10 -1 -14 6 -12 15 5 23 28 10 28 -5 0 -13 -7 -16
-16z"/>
<path d="M1614 2277 c-6 -17 2 -37 16 -37 15 0 19 29 5 40 -12 10 -16 9 -21
-3z"/>
<path d="M1430 2210 c0 -5 5 -10 10 -10 6 0 10 5 10 10 0 6 -4 10 -10 10 -5 0
-10 -4 -10 -10z"/>
<path d="M1800 2140 c-11 -7 -8 -11 13 -19 35 -13 37 -13 37 -1 0 15 -35 29
-50 20z"/>
<path d="M1692 2128 c6 -18 28 -21 28 -4 0 9 -7 16 -16 16 -9 0 -14 -5 -12
-12z"/>
<path d="M4760 2045 c-15 -18 -8 -28 20 -30 21 -2 24 4 14 29 -8 20 -18 20
-34 1z"/>
<path d="M1636 1991 c-4 -5 -2 -12 3 -15 5 -4 12 -2 15 3 4 5 2 12 -3 15 -5 4
-12 2 -15 -3z"/>
<path d="M4533 1718 c2 -7 10 -13 17 -13 7 0 15 6 18 13 2 7 -5 12 -18 12 -13
0 -20 -5 -17 -12z"/>
<path d="M1512 1698 c6 -18 28 -21 28 -4 0 9 -7 16 -16 16 -9 0 -14 -5 -12
-12z"/>
<path d="M1655 1650 c-8 -36 2 -73 18 -67 17 5 18 97 2 97 -8 0 -16 -13 -20
-30z"/>
<path d="M4230 1661 c0 -6 4 -13 10 -16 6 -3 7 1 4 9 -7 18 -14 21 -14 7z"/>
<path d="M1730 1533 c8 -3 18 -11 22 -17 9 -14 22 -1 13 13 -3 6 -16 11 -28
10 -15 0 -17 -2 -7 -6z"/>
<path d="M4420 1470 c-6 -11 -9 -20 -8 -20 2 0 11 9 21 20 9 11 13 20 7 20 -5
0 -14 -9 -20 -20z"/>
<path d="M1980 1466 c0 -8 4 -17 9 -20 10 -7 23 19 14 28 -11 11 -23 6 -23 -8z"/>
<path d="M2105 1450 c-3 -5 -2 -10 4 -10 5 0 13 5 16 10 3 6 2 10 -4 10 -5 0
-13 -4 -16 -10z"/>
<path d="M2044 1370 c-11 -4 -38 -8 -59 -8 -47 0 -70 -24 -52 -53 16 -26 24
-24 67 14 20 17 45 37 56 44 22 14 18 15 -12 3z"/>
<path d="M3416 1301 l-29 -30 28 -7 c30 -7 45 6 45 44 0 30 -11 28 -44 -7z"/>
<path d="M1690 1278 c-50 -35 -64 -60 -45 -84 12 -15 16 -16 24 -5 6 9 11 10
15 2 4 -6 21 -11 37 -11 26 0 29 -3 25 -24 -3 -16 3 -31 19 -46 54 -50 106 7
102 112 -1 31 -4 55 -6 53 -1 -2 -14 1 -28 6 -57 21 -108 20 -143 -3z"/>
<path d="M3720 1281 c0 -25 37 -66 68 -75 34 -11 28 20 -12 60 -38 38 -56 43
-56 15z"/>
<path d="M1883 1265 c0 -8 4 -12 9 -9 4 3 8 9 8 15 0 5 -4 9 -8 9 -5 0 -9 -7
-9 -15z"/>
<path d="M2077 1253 c-4 -3 -7 -12 -7 -20 0 -17 26 -17 33 1 8 21 -11 35 -26
19z"/>
<path d="M2505 1229 c-4 -6 -5 -12 -2 -15 2 -3 7 2 10 11 7 17 1 20 -8 4z"/>
<path d="M2315 1139 c-10 -15 3 -25 16 -12 7 7 7 13 1 17 -6 3 -14 1 -17 -5z"/>
<path d="M3535 1029 c-4 -6 -5 -12 -2 -15 2 -3 7 2 10 11 7 17 1 20 -8 4z"/>
<path d="M2170 1000 c0 -23 15 -27 23 -6 3 8 -1 17 -9 20 -9 4 -14 -1 -14 -14z"/>
</g>
</svg>
